<svg xmlns:x="http://ns.adobe.com/Extensibility/1.0/" xmlns:i="http://ns.adobe.com/AdobeIllustrator/10.0/" xmlns:graph="http://ns.adobe.com/Graphs/1.0/" xmlns="http://www.w3.org/2000/svg" xmlns:xlink="http://www.w3.org/1999/xlink" version="1.1" id="Layer_1" x="0px" y="0px" width="24px" height="24px" viewBox="0 0 24 24" enable-background="new 0 0 24 24" xml:space="preserve" fill="#61dafb">
<metadata>
	<sfw xmlns="http://ns.adobe.com/SaveForWeb/1.0/">
		<slices/>
		<sliceSourceBounds width="505" height="984" bottomLeftOrigin="true" x="0" y="-984"/>
	</sfw>
</metadata>
<g>
	<g>
		<g>
			<path d="M15,18c-0.3,0-0.5-0.1-0.7-0.3c-0.4-0.4-0.4-1,0-1.4l5-5c0.4-0.4,1-0.4,1.4,0s0.4,1,0,1.4l-5,5C15.5,17.9,15.3,18,15,18z     "/>
		</g>
	</g>
	<g>
		<g>
			<path d="M20,13c-0.3,0-0.5-0.1-0.7-0.3l-5-5c-0.4-0.4-0.4-1,0-1.4s1-0.4,1.4,0l5,5c0.4,0.4,0.4,1,0,1.4C20.5,12.9,20.3,13,20,13z     "/>
		</g>
	</g>
	<g>
		<g>
			<path d="M20,13H4c-0.6,0-1-0.4-1-1s0.4-1,1-1h16c0.6,0,1,0.4,1,1S20.6,13,20,13z"/>
		</g>
	</g>
</g>
</svg>