<svg xmlns="http://www.w3.org/2000/svg" viewBox="0 0 407.01 407.01" fill="#d5a54e"><g id="Layer_2" data-name="Layer 2"><g id="Layer_2-2" data-name="Layer 2"><path d="M203.5,0C91.11,0,0,91.11,0,203.5S91.11,407,203.5,407,407,315.89,407,203.5,315.89,0,203.5,0Zm0,400.93c-109,0-197.43-88.39-197.43-197.43S94.47,6.07,203.5,6.07,400.93,94.47,400.93,203.5,312.54,400.93,203.5,400.93Z"/><path d="M132.59,278.34,273,373.25a184.18,184.18,0,0,1-122.25,5.89l.37-.8Z"/><path d="M204.53,306.18,373,273.53a184,184,0,0,1-82.15,91.22l-.31-.23Z"/><path d="M276.58,128.41l-140-95.67a184.18,184.18,0,0,1,121-4.47l.12.43Z"/><path d="M364.46,115.61l-.4.41L307,200.11,275.74,34.93A184.14,184.14,0,0,1,364.46,115.61Z"/><path d="M386.86,203.5a183.19,183.19,0,0,1-7.51,52.09l-.39-.06L276.71,275.45,372.94,133.3A182.76,182.76,0,0,1,386.86,203.5Z"/><path d="M373,273.53a184,184,0,0,1-82.15,91.22l-.31-.23-86-58.34Z"/><path d="M273,373.25a184.18,184.18,0,0,1-122.25,5.89l.37-.8-18.49-100Z"/><path d="M133.12,372.86a182.82,182.82,0,0,1-89.63-80.13l.43-.59,58.14-88Z"/><path d="M129.53,131.62,34.69,275.18A182.61,182.61,0,0,1,20.14,203.5a179.12,179.12,0,0,1,7.69-51.92l.94-.22Z"/><path d="M202.25,99.88,35.19,132.59l-.74-.22a184.09,184.09,0,0,1,83.33-91Z"/></g></g></svg>